<svg xmlns="http://www.w3.org/2000/svg" xmlns:xlink="http://www.w3.org/1999/xlink" width="500" zoomAndPan="magnify" viewBox="0 0 375 374.999991" height="500" preserveAspectRatio="xMidYMid meet" version="1.0"><defs><g/><clipPath id="d054c86a09"><path d="M 115.554688 144 L 259.554688 144 L 259.554688 216.640625 L 115.554688 216.640625 Z M 115.554688 144 " clip-rule="nonzero"/></clipPath><clipPath id="86500bdb3a"><path d="M 118 86.914062 L 257 86.914062 L 257 137 L 118 137 Z M 118 86.914062 " clip-rule="nonzero"/></clipPath><clipPath id="1707f63d29"><path d="M 103.660156 65.503906 L 271.539062 65.503906 L 271.539062 233.71875 L 103.660156 233.71875 Z M 103.660156 65.503906 " clip-rule="nonzero"/></clipPath><clipPath id="c750f70e13"><path d="M 187.5 233.515625 C 165.117188 233.515625 144.039062 224.804688 128.222656 208.953125 C 112.371094 193.140625 103.660156 172.0625 103.660156 149.675781 C 103.660156 127.292969 112.371094 106.214844 128.222656 90.398438 C 144.039062 74.550781 165.117188 65.835938 187.5 65.835938 C 209.882812 65.835938 230.960938 74.550781 246.777344 90.398438 C 262.628906 106.25 271.339844 127.292969 271.339844 149.675781 C 271.339844 172.0625 262.628906 193.140625 246.777344 208.953125 C 230.960938 224.804688 209.882812 233.515625 187.5 233.515625 Z M 187.5 70.863281 C 166.457031 70.863281 146.652344 79.074219 131.773438 93.953125 C 116.894531 108.828125 108.6875 128.632812 108.6875 149.675781 C 108.6875 170.722656 116.894531 190.523438 131.773438 205.402344 C 146.652344 220.28125 166.457031 228.492188 187.5 228.492188 C 208.542969 228.492188 228.347656 220.28125 243.226562 205.402344 C 258.105469 190.523438 266.3125 170.722656 266.3125 149.675781 C 266.3125 128.632812 258.105469 108.828125 243.226562 93.953125 C 228.347656 79.074219 208.542969 70.863281 187.5 70.863281 Z M 187.5 70.863281 " clip-rule="nonzero"/></clipPath></defs><g clip-path="url(#d054c86a09)"><path fill="#00214d" d="M 259.535156 144.882812 L 259.535156 152.988281 C 259.535156 153.90625 258.765625 154.476562 257.863281 154.640625 L 247.285156 156.582031 C 245.703125 164.648438 242.519531 172.132812 238.089844 178.695312 L 244.195312 187.53125 C 244.730469 188.285156 244.839844 189.238281 244.195312 189.878906 L 238.457031 195.621094 L 232.699219 201.339844 C 232.054688 201.980469 231.097656 201.851562 230.34375 201.339844 L 221.476562 195.253906 C 214.894531 199.671875 207.386719 202.84375 199.292969 204.417969 L 197.34375 214.960938 C 197.175781 215.859375 196.605469 216.628906 195.6875 216.628906 L 179.421875 216.628906 C 178.503906 216.628906 177.914062 215.859375 177.75 214.960938 L 175.800781 204.417969 C 167.726562 202.84375 160.222656 199.667969 153.632812 195.253906 L 144.769531 201.339844 C 144.015625 201.851562 143.058594 201.980469 142.414062 201.339844 L 136.65625 195.621094 L 130.917969 189.878906 C 130.253906 189.238281 130.382812 188.285156 130.917969 187.53125 L 137.023438 178.699219 C 132.589844 172.132812 129.40625 164.652344 127.828125 156.585938 L 117.25 154.640625 C 116.34375 154.476562 115.574219 153.90625 115.574219 152.988281 L 115.574219 144.882812 L 145.152344 144.882812 C 145.351562 168.355469 164.523438 187.332031 188.125 187.332031 C 211.726562 187.332031 230.894531 168.351562 231.097656 144.882812 Z M 259.535156 144.882812 " fill-opacity="1" fill-rule="evenodd"/></g><g clip-path="url(#86500bdb3a)"><path fill="#ff9a00" d="M 205.34375 86.890625 C 221.3125 91.765625 234.480469 102.988281 241.875 117.621094 L 214.707031 122.058594 L 248.71875 122.058594 C 252.785156 122.058594 256.097656 125.375 256.097656 129.410156 C 256.097656 133.460938 252.785156 136.78125 248.71875 136.78125 L 193.882812 136.78125 C 193.496094 119.730469 196.679688 103.023438 205.34375 86.890625 Z M 127.269531 136.78125 L 126.386719 136.78125 C 122.320312 136.78125 118.992188 133.460938 118.992188 129.410156 C 118.992188 125.375 122.320312 122.058594 126.386719 122.058594 L 160.402344 122.058594 L 133.214844 117.621094 C 140.628906 102.988281 153.796875 91.765625 169.765625 86.90625 C 178.414062 103.023438 181.59375 119.726562 181.226562 136.78125 Z M 127.269531 136.78125 " fill-opacity="1" fill-rule="evenodd"/></g><path fill="#00214d" d="M 153.15625 144.882812 L 223.097656 144.882812 C 223.058594 147.929688 222.636719 150.898438 221.863281 153.703125 L 218.460938 161.824219 C 218.054688 162.539062 217.632812 163.21875 217.191406 163.878906 L 194.34375 163.878906 L 191.824219 152.660156 L 183.289062 152.660156 L 180.769531 163.878906 L 159.0625 163.878906 C 155.398438 158.453125 153.226562 151.925781 153.15625 144.882812 Z M 153.15625 144.882812 " fill-opacity="1" fill-rule="evenodd"/><g clip-path="url(#1707f63d29)"><g clip-path="url(#c750f70e13)"><path fill="#ff9a00" d="M 103.660156 65.835938 L 271.207031 65.835938 L 271.207031 233.382812 L 103.660156 233.382812 Z M 103.660156 65.835938 " fill-opacity="1" fill-rule="nonzero"/></g></g><g fill="#00214d" fill-opacity="1"><g transform="translate(77.156249, 279.181138)"><g><path d="M 16.105469 -21.460938 C 16.277344 -21.417969 16.78125 -21.292969 16.90625 -21.292969 C 17.203125 -21.292969 17.328125 -21.417969 17.457031 -21.628906 L 18.636719 -24.414062 C 18.679688 -24.539062 18.761719 -24.75 18.761719 -24.917969 C 18.761719 -25.128906 18.722656 -25.339844 18.425781 -25.46875 C 16.023438 -26.5625 14.25 -26.902344 11.214844 -26.902344 C 6.113281 -26.902344 1.980469 -24.625 1.980469 -19.183594 C 1.980469 -10.289062 15.855469 -12.355469 15.855469 -7.335938 C 15.855469 -6.070312 15.515625 -4.554688 11.46875 -4.554688 C 9.527344 -4.554688 7.042969 -5.144531 4.847656 -6.367188 C 4.679688 -6.453125 4.554688 -6.492188 4.425781 -6.492188 C 4.132812 -6.492188 4.003906 -6.324219 3.878906 -6.113281 L 2.277344 -3.203125 C 2.191406 -3.078125 2.152344 -2.953125 2.152344 -2.78125 C 2.152344 -2.570312 2.191406 -2.359375 2.488281 -2.152344 C 5.945312 0.253906 11.257812 0.335938 11.257812 0.335938 C 20.535156 0.335938 21.25 -5.859375 21.25 -7.378906 C 21.25 -16.90625 7.378906 -14.84375 7.378906 -19.355469 C 7.378906 -21.503906 9.066406 -22.011719 11.722656 -22.011719 C 13.28125 -22.011719 14.800781 -21.757812 16.105469 -21.460938 Z M 16.105469 -21.460938 "/></g></g></g><g fill="#00214d" fill-opacity="1"><g transform="translate(100.17787, 279.181138)"><g><path d="M 12.691406 0.335938 C 20.828125 0.335938 22.769531 -4.765625 22.769531 -9.277344 L 22.769531 -25.804688 C 22.769531 -26.3125 22.347656 -26.5625 22.011719 -26.5625 L 18.089844 -26.5625 C 17.75 -26.5625 17.328125 -26.3125 17.328125 -25.804688 L 17.328125 -9.234375 C 17.328125 -5.058594 14.039062 -4.636719 12.691406 -4.636719 C 11.34375 -4.636719 8.054688 -5.058594 8.054688 -9.234375 L 8.054688 -25.804688 C 8.054688 -26.3125 7.632812 -26.5625 7.292969 -26.5625 L 3.375 -26.5625 C 3.035156 -26.5625 2.613281 -26.3125 2.613281 -25.804688 L 2.613281 -9.277344 C 2.613281 -4.765625 4.554688 0.335938 12.691406 0.335938 Z M 12.691406 0.335938 "/></g></g></g><g fill="#00214d" fill-opacity="1"><g transform="translate(125.560681, 279.181138)"><g><path d="M 11.046875 -21.589844 C 12.398438 -21.589844 15.644531 -21.25 15.644531 -17.078125 L 15.644531 -15.726562 C 15.644531 -11.554688 12.398438 -11.132812 11.046875 -11.132812 L 8.054688 -11.132812 L 8.054688 -21.589844 Z M 3.375 -26.5625 C 3.035156 -26.5625 2.613281 -26.3125 2.613281 -25.804688 L 2.613281 -0.757812 C 2.613281 -0.253906 3.035156 0 3.375 0 L 7.292969 0 C 7.632812 0 8.054688 -0.253906 8.054688 -0.757812 L 8.054688 -6.15625 L 11.046875 -6.15625 C 20.957031 -6.15625 21.082031 -14.632812 21.082031 -14.632812 L 21.082031 -18.132812 C 21.082031 -18.132812 20.957031 -26.5625 11.046875 -26.5625 Z M 3.375 -26.5625 "/></g></g></g><g fill="#00214d" fill-opacity="1"><g transform="translate(148.41365, 279.181138)"><g><path d="M 8.054688 -4.976562 L 8.054688 -10.667969 L 16.316406 -10.667969 C 16.824219 -10.667969 17.078125 -11.089844 17.078125 -11.425781 L 17.078125 -14.882812 C 17.078125 -15.222656 16.824219 -15.644531 16.316406 -15.644531 L 8.054688 -15.644531 L 8.054688 -21.589844 L 18.257812 -21.589844 C 18.761719 -21.589844 19.015625 -22.011719 19.015625 -22.347656 L 19.015625 -25.804688 C 19.015625 -26.140625 18.761719 -26.5625 18.257812 -26.5625 L 3.375 -26.5625 C 3.035156 -26.5625 2.613281 -26.3125 2.613281 -25.804688 L 2.613281 -0.757812 C 2.613281 -0.253906 3.035156 0 3.375 0 L 18.257812 0 C 18.761719 0 19.015625 -0.421875 19.015625 -0.757812 L 19.015625 -4.214844 C 19.015625 -4.554688 18.761719 -4.976562 18.257812 -4.976562 Z M 8.054688 -4.976562 "/></g></g></g><g fill="#00214d" fill-opacity="1"><g transform="translate(170.043851, 279.181138)"><g><path d="M 15.390625 -0.507812 C 15.515625 -0.167969 15.8125 0 16.105469 0 L 19.859375 0 C 20.195312 0 20.617188 -0.253906 20.617188 -0.757812 L 17.246094 -7.757812 C 21 -10.203125 21.082031 -14.632812 21.082031 -14.632812 L 21.082031 -18.132812 C 21.082031 -18.132812 20.957031 -26.5625 11.046875 -26.5625 L 3.375 -26.5625 C 3.035156 -26.5625 2.613281 -26.3125 2.613281 -25.804688 L 2.613281 -0.757812 C 2.613281 -0.253906 3.035156 0 3.375 0 L 7.292969 0 C 7.632812 0 8.054688 -0.253906 8.054688 -0.757812 L 8.054688 -6.15625 L 11.046875 -6.15625 C 11.636719 -6.15625 12.1875 -6.15625 12.734375 -6.242188 Z M 11.046875 -21.589844 C 12.398438 -21.589844 15.644531 -21.25 15.644531 -17.078125 L 15.644531 -15.726562 C 15.644531 -11.554688 12.398438 -11.132812 11.046875 -11.132812 L 8.054688 -11.132812 L 8.054688 -21.589844 Z M 11.046875 -21.589844 "/></g></g></g><g fill="#00214d" fill-opacity="1"><g transform="translate(192.475174, 279.181138)"><g><path d="M 15.265625 0 C 15.515625 0 15.855469 -0.167969 15.980469 -0.507812 L 23.738281 -25.804688 C 23.738281 -26.3125 23.316406 -26.5625 22.980469 -26.5625 L 19.144531 -26.5625 C 18.804688 -26.5625 18.46875 -26.3125 18.300781 -25.804688 L 12.4375 -6.578125 L 6.578125 -25.804688 C 6.410156 -26.3125 6.070312 -26.5625 5.734375 -26.5625 L 1.898438 -26.5625 C 1.558594 -26.5625 1.136719 -26.3125 1.136719 -25.804688 L 8.898438 -0.507812 C 9.023438 -0.167969 9.359375 0 9.613281 0 Z M 15.265625 0 "/></g></g></g><g fill="#00214d" fill-opacity="1"><g transform="translate(217.352018, 279.181138)"><g><path d="M 8.054688 -25.804688 C 8.054688 -26.3125 7.632812 -26.5625 7.292969 -26.5625 L 3.375 -26.5625 C 3.035156 -26.5625 2.613281 -26.3125 2.613281 -25.804688 L 2.613281 -0.757812 C 2.613281 -0.253906 3.035156 0 3.375 0 L 7.292969 0 C 7.632812 0 8.054688 -0.253906 8.054688 -0.757812 Z M 8.054688 -25.804688 "/></g></g></g><g fill="#00214d" fill-opacity="1"><g transform="translate(228.019548, 279.181138)"><g><path d="M 16.105469 -21.460938 C 16.277344 -21.417969 16.78125 -21.292969 16.90625 -21.292969 C 17.203125 -21.292969 17.328125 -21.417969 17.457031 -21.628906 L 18.636719 -24.414062 C 18.679688 -24.539062 18.761719 -24.75 18.761719 -24.917969 C 18.761719 -25.128906 18.722656 -25.339844 18.425781 -25.46875 C 16.023438 -26.5625 14.25 -26.902344 11.214844 -26.902344 C 6.113281 -26.902344 1.980469 -24.625 1.980469 -19.183594 C 1.980469 -10.289062 15.855469 -12.355469 15.855469 -7.335938 C 15.855469 -6.070312 15.515625 -4.554688 11.46875 -4.554688 C 9.527344 -4.554688 7.042969 -5.144531 4.847656 -6.367188 C 4.679688 -6.453125 4.554688 -6.492188 4.425781 -6.492188 C 4.132812 -6.492188 4.003906 -6.324219 3.878906 -6.113281 L 2.277344 -3.203125 C 2.191406 -3.078125 2.152344 -2.953125 2.152344 -2.78125 C 2.152344 -2.570312 2.191406 -2.359375 2.488281 -2.152344 C 5.945312 0.253906 11.257812 0.335938 11.257812 0.335938 C 20.535156 0.335938 21.25 -5.859375 21.25 -7.378906 C 21.25 -16.90625 7.378906 -14.84375 7.378906 -19.355469 C 7.378906 -21.503906 9.066406 -22.011719 11.722656 -22.011719 C 13.28125 -22.011719 14.800781 -21.757812 16.105469 -21.460938 Z M 16.105469 -21.460938 "/></g></g></g><g fill="#00214d" fill-opacity="1"><g transform="translate(251.041168, 279.181138)"><g><path d="M 12.1875 -26.902344 C 2.234375 -26.902344 2.191406 -18.511719 2.191406 -18.511719 L 2.191406 -8.054688 C 2.191406 -8.054688 2.234375 0.335938 12.1875 0.335938 C 22.136719 0.335938 22.179688 -8.054688 22.179688 -8.054688 L 22.179688 -18.511719 C 22.179688 -18.511719 22.136719 -26.902344 12.1875 -26.902344 Z M 12.1875 -4.636719 C 10.835938 -4.636719 7.632812 -5.058594 7.632812 -9.234375 L 7.632812 -17.328125 C 7.632812 -21.503906 10.835938 -21.925781 12.1875 -21.925781 C 13.535156 -21.925781 16.738281 -21.503906 16.738281 -17.328125 L 16.738281 -9.234375 C 16.738281 -5.058594 13.535156 -4.636719 12.1875 -4.636719 Z M 12.1875 -4.636719 "/></g></g></g><g fill="#00214d" fill-opacity="1"><g transform="translate(275.412035, 279.181138)"><g><path d="M 15.390625 -0.507812 C 15.515625 -0.167969 15.8125 0 16.105469 0 L 19.859375 0 C 20.195312 0 20.617188 -0.253906 20.617188 -0.757812 L 17.246094 -7.757812 C 21 -10.203125 21.082031 -14.632812 21.082031 -14.632812 L 21.082031 -18.132812 C 21.082031 -18.132812 20.957031 -26.5625 11.046875 -26.5625 L 3.375 -26.5625 C 3.035156 -26.5625 2.613281 -26.3125 2.613281 -25.804688 L 2.613281 -0.757812 C 2.613281 -0.253906 3.035156 0 3.375 0 L 7.292969 0 C 7.632812 0 8.054688 -0.253906 8.054688 -0.757812 L 8.054688 -6.15625 L 11.046875 -6.15625 C 11.636719 -6.15625 12.1875 -6.15625 12.734375 -6.242188 Z M 11.046875 -21.589844 C 12.398438 -21.589844 15.644531 -21.25 15.644531 -17.078125 L 15.644531 -15.726562 C 15.644531 -11.554688 12.398438 -11.132812 11.046875 -11.132812 L 8.054688 -11.132812 L 8.054688 -21.589844 Z M 11.046875 -21.589844 "/></g></g></g><g fill="#d1820a" fill-opacity="1"><g transform="translate(134.6448, 305.188223)"><g><path d="M 9.015625 -8.921875 L 9.015625 0 L 7.734375 0 L 7.734375 -3.984375 L 2.609375 -3.984375 L 2.609375 0 L 1.34375 0 L 1.34375 -8.921875 L 2.609375 -8.921875 L 2.609375 -5.09375 L 7.734375 -5.09375 L 7.734375 -8.921875 Z M 9.015625 -8.921875 "/></g></g></g><g fill="#d1820a" fill-opacity="1"><g transform="translate(155.204856, 305.188223)"><g><path d="M 7.8125 -1.109375 L 7.8125 0 L 1.34375 0 L 1.34375 -8.921875 L 7.640625 -8.921875 L 7.640625 -7.8125 L 2.609375 -7.8125 L 2.609375 -5.078125 L 7.09375 -5.078125 L 7.09375 -3.984375 L 2.609375 -3.984375 L 2.609375 -1.109375 Z M 7.8125 -1.109375 "/></g></g></g><g fill="#d1820a" fill-opacity="1"><g transform="translate(173.954412, 305.188223)"><g><path d="M 1.34375 -8.921875 L 2.609375 -8.921875 L 2.609375 -1.109375 L 7.453125 -1.109375 L 7.453125 0 L 1.34375 0 Z M 1.34375 -8.921875 "/></g></g></g><g fill="#d1820a" fill-opacity="1"><g transform="translate(191.734976, 305.188223)"><g><path d="M 9.609375 0 L 9.59375 -6.5 L 6.375 -1.078125 L 5.78125 -1.078125 L 2.5625 -6.46875 L 2.5625 0 L 1.34375 0 L 1.34375 -8.921875 L 2.390625 -8.921875 L 6.109375 -2.65625 L 9.78125 -8.921875 L 10.828125 -8.921875 L 10.84375 0 Z M 9.609375 0 "/></g></g></g><g fill="#d1820a" fill-opacity="1"><g transform="translate(214.118267, 305.188223)"><g><path d="M 7.8125 -1.109375 L 7.8125 0 L 1.34375 0 L 1.34375 -8.921875 L 7.640625 -8.921875 L 7.640625 -7.8125 L 2.609375 -7.8125 L 2.609375 -5.078125 L 7.09375 -5.078125 L 7.09375 -3.984375 L 2.609375 -3.984375 L 2.609375 -1.109375 Z M 7.8125 -1.109375 "/></g></g></g><g fill="#d1820a" fill-opacity="1"><g transform="translate(232.86782, 305.188223)"><g><path d="M 3.109375 -7.8125 L 0.046875 -7.8125 L 0.046875 -8.921875 L 7.4375 -8.921875 L 7.4375 -7.8125 L 4.375 -7.8125 L 4.375 0 L 3.109375 0 Z M 3.109375 -7.8125 "/></g></g></g></svg>